<?xml version="1.0"?>
<svg xmlns="http://www.w3.org/2000/svg" id="Layer_1" data-name="Layer 1" viewBox="0 0 128 128" width="512" height="512"><title>MAGIC BALL</title><path d="M115.5,113.75H99.75V99.5A1.75,1.75,0,0,0,98,97.75H94.246V94.239a5,5,0,0,0-5-4.989,1.483,1.483,0,0,1-.95-2.626,37.79,37.79,0,0,0,3.7-3.5,5.8,5.8,0,0,0,.572-7.265,34.083,34.083,0,1,0-57.13,0,5.7,5.7,0,0,0-1.016,2.852,5.774,5.774,0,0,0,1.5,4.315,37.694,37.694,0,0,0,3.728,3.548,1.517,1.517,0,0,1,.487,1.727,1.4,1.4,0,0,1-1.385.955,5,5,0,0,0-4.989,4.989V97.75H30a1.75,1.75,0,0,0-1.75,1.75v14.25H12.5a1.75,1.75,0,0,0,0,3.5h103a1.75,1.75,0,0,0,0-3.5ZM64,26.718a30.56,30.56,0,0,1,25.778,47.01,5.7,5.7,0,0,0-6.17,1.524,26.584,26.584,0,0,1-39.075.153,6.018,6.018,0,0,0-6.3-1.656A30.559,30.559,0,0,1,64,26.718ZM37.254,94.239a1.491,1.491,0,0,1,1.492-1.489,4.911,4.911,0,0,0,4.674-3.267,5.009,5.009,0,0,0-1.545-5.608,34.356,34.356,0,0,1-3.382-3.218,2.25,2.25,0,0,1,.251-3.276,2.431,2.431,0,0,1,3.227.409,30.084,30.084,0,0,0,44.219-.174,2.23,2.23,0,0,1,1.773-.727,2.255,2.255,0,0,1,1.716.933,2.332,2.332,0,0,1-.259,2.927,34.18,34.18,0,0,1-3.356,3.176,4.983,4.983,0,0,0,3.193,8.825,1.491,1.491,0,0,1,1.489,1.489V97.75H37.254Zm-5.5,7.011h64.5v12.5H31.75Z"/><path d="M39.331,59.052a1.75,1.75,0,0,0,1.75-1.75,22.979,22.979,0,0,1,7.482-16.941,1.75,1.75,0,1,0-2.357-2.586A26.483,26.483,0,0,0,37.581,57.3,1.75,1.75,0,0,0,39.331,59.052Z"/><path d="M54.231,36.394a1.74,1.74,0,0,0,.692-.144A22.766,22.766,0,0,1,64,34.383a1.75,1.75,0,0,0,0-3.5,26.238,26.238,0,0,0-10.463,2.154,1.75,1.75,0,0,0,.694,3.357Z"/><path d="M58.427,65.1V62.651a1.75,1.75,0,0,0-3.5,0V65.1a1.75,1.75,0,0,0,3.5,0Z"/><path d="M61.875,66.1H59.424a1.75,1.75,0,1,0,0,3.5h2.451a1.75,1.75,0,0,0,0-3.5Z"/><path d="M56.677,68.846a1.75,1.75,0,0,0-1.75,1.75v2.451a1.75,1.75,0,0,0,3.5,0V70.6A1.75,1.75,0,0,0,56.677,68.846Z"/><path d="M51.479,69.6h2.45a1.75,1.75,0,0,0,0-3.5h-2.45a1.75,1.75,0,0,0,0,3.5Z"/><path d="M75,46.125a1.75,1.75,0,0,0,1.75-1.75V41.924a1.75,1.75,0,0,0-3.5,0v2.451A1.75,1.75,0,0,0,75,46.125Z"/><path d="M76,47.122a1.75,1.75,0,0,0,1.75,1.75H80.2a1.75,1.75,0,0,0,0-3.5H77.747A1.75,1.75,0,0,0,76,47.122Z"/><path d="M75,48.119a1.75,1.75,0,0,0-1.75,1.75V52.32a1.75,1.75,0,0,0,3.5,0V49.869A1.75,1.75,0,0,0,75,48.119Z"/><path d="M69.8,48.872h2.451a1.75,1.75,0,0,0,0-3.5H69.8a1.75,1.75,0,0,0,0,3.5Z"/><path d="M64,19.75A1.75,1.75,0,0,0,65.75,18V12.5a1.75,1.75,0,0,0-3.5,0V18A1.75,1.75,0,0,0,64,19.75Z"/><path d="M91.791,31.261a1.743,1.743,0,0,0,1.237-.513l3.889-3.889a1.75,1.75,0,0,0-2.475-2.475l-3.889,3.889a1.75,1.75,0,0,0,1.237,2.987Z"/><path d="M103.3,59.052h5.5a1.75,1.75,0,0,0,0-3.5h-5.5a1.75,1.75,0,1,0,0,3.5Z"/><path d="M19.2,59.052h5.5a1.75,1.75,0,1,0,0-3.5H19.2a1.75,1.75,0,0,0,0,3.5Z"/><path d="M34.972,30.749a1.75,1.75,0,1,0,2.475-2.475l-3.889-3.889a1.75,1.75,0,0,0-2.475,2.475Z"/></svg>
